<svg width="12" height="12" viewBox="0 0 12 12" fill="none" xmlns="http://www.w3.org/2000/svg">
<path d="M6.2121 4.88788C6.15584 4.83164 6.07955 4.80005 6 4.80005C5.92045 4.80005 5.84416 4.83164 5.7879 4.88788L3.9879 6.68788C3.93325 6.74447 3.90301 6.82025 3.9037 6.89891C3.90438 6.97756 3.93593 7.05281 3.99155 7.10843C4.04718 7.16405 4.12242 7.1956 4.20108 7.19629C4.27974 7.19697 4.35552 7.16673 4.4121 7.11209L6 5.52418L7.5879 7.11209C7.64448 7.16673 7.72026 7.19697 7.79892 7.19629C7.87758 7.1956 7.95282 7.16405 8.00845 7.10843C8.06407 7.05281 8.09562 6.97756 8.0963 6.89891C8.09699 6.82025 8.06675 6.74447 8.0121 6.68788L6.2121 4.88788Z" fill="#171A1F"/>
</svg>
