<svg width="16" height="16" viewBox="0 0 16 16" fill="none" xmlns="http://www.w3.org/2000/svg">
<path d="M10.4999 3.00003L10.4999 13C10.5 13.099 10.4707 13.1957 10.4158 13.278C10.3608 13.3603 10.2827 13.4245 10.1913 13.4623C10.0999 13.5002 9.99929 13.5101 9.90225 13.4908C9.80521 13.4715 9.71608 13.4238 9.64615 13.3538L4.64615 8.35378C4.59967 8.30734 4.56279 8.2522 4.53763 8.1915C4.51246 8.1308 4.49951 8.06574 4.49951 8.00003C4.49951 7.93432 4.51246 7.86926 4.53763 7.80856C4.56279 7.74786 4.59967 7.69271 4.64615 7.64628L9.64615 2.64628C9.71608 2.57627 9.80521 2.52859 9.90225 2.50926C9.99929 2.48994 10.0999 2.49984 10.1913 2.53772C10.2827 2.57559 10.3608 2.63974 10.4158 2.72204C10.4707 2.80433 10.5 2.90108 10.4999 3.00003Z" fill="#9095A1"/>
</svg>
