<svg width="20" height="20" viewBox="0 0 20 20" fill="none" xmlns="http://www.w3.org/2000/svg">
<path d="M8.25 4.5C8.40465 4.50324 8.55665 4.54081 8.695 4.60999C8.83336 4.67916 8.95461 4.77822 9.05 4.9L10.25 6.5L16.5 6.5V3C16.504 2.93329 16.4938 2.86649 16.4701 2.80401C16.4464 2.74153 16.4097 2.68479 16.3625 2.63754C16.3152 2.59028 16.2585 2.55359 16.196 2.52988C16.1335 2.50617 16.0667 2.49599 16 2.5L4 2.5C3.93329 2.49599 3.86649 2.50617 3.80401 2.52988C3.74153 2.55359 3.68479 2.59028 3.63754 2.63754C3.59028 2.68479 3.55359 2.74153 3.52988 2.80401C3.50617 2.86649 3.49599 2.93329 3.5 3L3.5 4.5L8.25 4.5Z" fill="#171A1F"/>
<path d="M17.5 7.49997L9.75 7.49997L8.4 5.69997C8.35622 5.63498 8.29639 5.58242 8.2263 5.54737C8.15621 5.51233 8.07826 5.496 8 5.49997L2.5 5.49997C2.36739 5.49997 2.24021 5.55265 2.14645 5.64642C2.05268 5.74019 2 5.86737 2 5.99997L2 15.5C2 16.0304 2.21071 16.5391 2.58579 16.9142C2.96086 17.2893 3.46957 17.5 4 17.5L16 17.5C16.5304 17.5 17.0391 17.2893 17.4142 16.9142C17.7893 16.5391 18 16.0304 18 15.5V7.99997C18 7.86737 17.9473 7.74019 17.8536 7.64642C17.7598 7.55265 17.6326 7.49997 17.5 7.49997Z" fill="#171A1F"/>
</svg>
