<svg width="24" height="24" viewBox="0 0 24 24" fill="none" xmlns="http://www.w3.org/2000/svg">
<path d="M15.672 14.6873C15.946 14.771 16.2091 14.887 16.4556 15.0329C16.5084 15.0623 16.5594 15.0929 16.6092 15.1187C16.7364 15.1073 16.944 15.0635 17.115 15.0281C17.4219 14.9528 17.7358 14.9092 18.0516 14.8979C18.1602 14.8984 18.2686 14.9081 18.3756 14.9267C18.3911 14.6427 18.3854 14.3579 18.3588 14.0747C18.2079 12.8023 17.6955 11.5998 16.8822 10.6097C16.1292 9.78115 14.9694 8.59135 14.9694 7.68775L14.9694 5.17915C14.9587 4.44905 14.6611 3.75249 14.141 3.23998C13.6209 2.72748 12.9201 2.44019 12.1899 2.44019C11.4597 2.44019 10.7589 2.72748 10.2388 3.23998C9.71868 3.75249 9.42112 4.44905 9.41039 5.17915L9.41039 8.83255C9.29039 9.46495 8.97359 9.52555 8.47679 10.2185C7.98642 10.8712 7.59538 11.5928 7.31639 12.3599C7.08419 13.0559 6.59339 13.7903 6.36839 14.3687C6.42744 14.35 6.48755 14.3348 6.54839 14.3231C6.6385 14.3089 6.72957 14.3017 6.82079 14.3015C7.14117 14.3043 7.45529 14.3906 7.73219 14.5517C8.07638 13.167 8.64207 11.847 9.40739 10.6427C9.85436 9.95103 10.0513 9.12722 9.96539 8.30815C10.257 8.53975 10.548 9.26155 11.3406 9.26155C12.1332 9.26155 12.6666 8.63875 13.1082 8.41795C13.221 8.36164 13.3241 8.28771 13.4136 8.19895L13.4898 8.21695C14.1778 9.49096 14.7914 10.8038 15.3276 12.1487C15.5644 12.9739 15.6804 13.829 15.672 14.6873ZM11.1516 6.61915C11.0236 6.64542 10.8988 6.68566 10.7796 6.73915C10.758 6.74815 10.7382 6.75775 10.7196 6.76735C10.6148 6.81614 10.5144 6.87396 10.4196 6.94015C10.255 6.75829 10.1583 6.52512 10.146 6.28015C10.107 5.81575 10.3098 5.41975 10.599 5.39575C10.8882 5.37175 11.1534 5.72815 11.1924 6.19255C11.2037 6.33604 11.1899 6.4804 11.1516 6.61915ZM13.0716 6.28495C13.0564 6.51533 12.9793 6.73734 12.8484 6.92755C12.8028 6.90295 12.7524 6.87835 12.7002 6.85315L12.66 6.83455C12.6 6.80575 12.531 6.77815 12.459 6.75115H12.4512C12.2765 6.68734 12.0955 6.64248 11.9112 6.61735C11.8791 6.47656 11.8687 6.33167 11.8806 6.18775C11.9244 5.66455 12.2274 5.26315 12.5562 5.29075C12.885 5.31835 13.116 5.75995 13.0722 6.28495H13.0716Z" fill="#171A1F"/>
<path d="M7.7586 16.2288C7.4874 15.8172 7.1154 15.4488 6.744 15.5088C6.3726 15.5688 6.1116 16.239 5.8704 16.44C5.6292 16.641 4.7052 16.4598 4.4244 16.761C4.1436 17.0622 4.404 18.1368 4.3542 18.6492C4.3044 19.1616 4.0326 19.4328 4.0026 19.6734C3.9726 19.914 4.0524 20.1858 4.5048 20.3466C4.9572 20.5074 6.6438 20.9292 7.2264 21.0594C7.809 21.1896 9.1746 22.0536 9.8172 21.0096C10.3194 20.1936 9.9882 19.4424 9.4356 18.81C8.82835 17.9819 8.26845 17.1201 7.7586 16.2288Z" fill="#171A1F"/>
<path d="M11.7528 19.74C11.5662 19.74 11.3928 19.7298 11.22 19.713C11.2721 19.9922 11.2776 20.2781 11.2362 20.559C11.9258 20.5199 12.6176 20.5446 13.3026 20.6328C13.2468 20.199 13.269 19.7587 13.368 19.3326C12.8725 19.6023 12.3169 19.7424 11.7528 19.74Z" fill="#171A1F"/>
<path d="M19.629 18.1873C19.1897 17.9865 18.8419 17.628 18.6546 17.1829C18.5646 16.7815 18.645 16.4101 18.3336 16.1689C18.0222 15.9277 17.0064 16.3873 16.4064 16.3129C15.9864 16.2601 15.3588 15.6019 14.9304 15.8743C14.676 16.0363 14.8104 16.6807 14.8188 17.0227C14.8066 17.7077 14.7561 18.3916 14.6676 19.0711C14.5974 19.4629 14.055 20.6983 15.1098 21.4009C15.8388 21.8869 16.6566 21.3811 17.0784 20.9695C17.5148 20.5207 18.0199 20.1444 18.5748 19.8547C19.0756 19.6731 19.5313 19.3853 19.9104 19.0111C20.0712 18.7399 20.0508 18.4285 19.629 18.1873Z" fill="#171A1F"/>
</svg>
