<svg width="16" height="16" viewBox="0 0 16 16" fill="none" xmlns="http://www.w3.org/2000/svg">
<path d="M13.6 7.59998L2.4 7.59998C2.16 7.59998 2 7.75998 2 7.99998C2 8.23998 2.16 8.39998 2.4 8.39998L13.6 8.39998C13.84 8.39998 14 8.23998 14 7.99998C14 7.75998 13.84 7.59998 13.6 7.59998Z" fill="#BDC1CA"/>
<path d="M13.6 4L2.4 4C2.16 4 2 4.16 2 4.4C2 4.64 2.16 4.8 2.4 4.8L13.6 4.8C13.84 4.8 14 4.64 14 4.4C14 4.16 13.84 4 13.6 4Z" fill="#BDC1CA"/>
<path d="M13.6 11.2L2.4 11.2C2.16 11.2 2 11.36 2 11.6C2 11.84 2.16 12 2.4 12L13.6 12C13.84 12 14 11.84 14 11.6C14 11.36 13.84 11.2 13.6 11.2Z" fill="#BDC1CA"/>
</svg>
