<svg width="16" height="16" viewBox="0 0 16 16" fill="none" xmlns="http://www.w3.org/2000/svg">
<path d="M8.34911 2.60486C8.31142 2.54657 8.25974 2.49866 8.19878 2.46548C8.13781 2.4323 8.06951 2.41492 8.00011 2.41492C7.9307 2.41492 7.8624 2.4323 7.80144 2.46548C7.74048 2.49866 7.68879 2.54657 7.65111 2.60486L2.05111 12.6049C2.01708 12.6657 1.99956 12.7344 2.00026 12.8041C2.00097 12.8738 2.01989 12.9421 2.05514 13.0023C2.09039 13.0624 2.14075 13.1123 2.20122 13.147C2.2617 13.1817 2.33019 13.2 2.39991 13.2001L13.5999 13.2001C13.6697 13.2001 13.7382 13.1818 13.7987 13.1472C13.8593 13.1125 13.9097 13.0626 13.945 13.0025C13.9803 12.9423 13.9992 12.874 13.9999 12.8042C14.0007 12.7345 13.9831 12.6657 13.9491 12.6049L8.34911 2.60486Z" fill="#BDC1CA"/>
</svg>
