<svg width="24" height="24" viewBox="0 0 24 24" fill="none" xmlns="http://www.w3.org/2000/svg">
<path d="M11.4 13.2L11.4 3.59998L6.59995 3.59998C5.96343 3.59998 5.35298 3.85283 4.90289 4.30292C4.45281 4.75301 4.19995 5.36346 4.19995 5.99998V8.99998C4.99531 9.00093 5.75782 9.3173 6.32022 9.87971C6.88262 10.4421 7.199 11.2046 7.19995 12V13.2L11.4 13.2Z" fill="#171A1F"/>
<path d="M17.4 3.59998L12.6 3.59998L12.6 13.2L16.8 13.2L16.8 12C16.8009 11.2046 17.1173 10.4421 17.6797 9.87971C18.2421 9.3173 19.0046 9.00093 19.8 8.99998V5.99998C19.8 5.36346 19.5471 4.75301 19.097 4.30292C18.6469 3.85283 18.0365 3.59998 17.4 3.59998Z" fill="#171A1F"/>
<path d="M19.8 10.2C19.3226 10.2 18.8648 10.3896 18.5272 10.7272C18.1897 11.0647 18 11.5226 18 12V14.4L6.00002 14.4L6.00002 12C6.00002 11.5226 5.81038 11.0647 5.47282 10.7272C5.13525 10.3896 4.67741 10.2 4.20002 10.2C3.72263 10.2 3.2648 10.3896 2.92723 10.7272C2.58967 11.0647 2.40002 11.5226 2.40002 12L2.40002 18C2.40002 18.1591 2.46324 18.3117 2.57576 18.4242C2.68828 18.5367 2.84089 18.6 3.00002 18.6H4.20002L4.20002 19.8C4.20002 19.9591 4.26324 20.1117 4.37576 20.2242C4.48828 20.3367 4.64089 20.4 4.80002 20.4C4.95915 20.4 5.11177 20.3367 5.22429 20.2242C5.33681 20.1117 5.40002 19.9591 5.40002 19.8V18.6L18.6 18.6V19.8C18.6 19.9591 18.6632 20.1117 18.7758 20.2242C18.8883 20.3367 19.0409 20.4 19.2 20.4C19.3592 20.4 19.5118 20.3367 19.6243 20.2242C19.7368 20.1117 19.8 19.9591 19.8 19.8V18.6L21 18.6C21.1592 18.6 21.3118 18.5367 21.4243 18.4242C21.5368 18.3117 21.6 18.1591 21.6 18L21.6 12C21.6 11.5226 21.4104 11.0647 21.0728 10.7272C20.7353 10.3896 20.2774 10.2 19.8 10.2Z" fill="#171A1F"/>
</svg>
